<svg width="120" height="60" viewBox="0 0 120 60" fill="none" xmlns="http://www.w3.org/2000/svg">
<rect width="120" height="60" fill="white"/>
<path d="M68 32V30C68 28.9391 67.5786 27.9217 66.8284 27.1716C66.0783 26.4214 65.0609 26 64 26H56C54.9391 26 53.9217 26.4214 53.1716 27.1716C52.4214 27.9217 52 28.9391 52 30V32" stroke="#222222" stroke-linecap="round" stroke-linejoin="round"/>
<path d="M60 22C62.2091 22 64 20.2091 64 18C64 15.7909 62.2091 14 60 14C57.7909 14 56 15.7909 56 18C56 20.2091 57.7909 22 60 22Z" stroke="#222222" stroke-linecap="round" stroke-linejoin="round"/>
<path d="M48.65 45L51.48 37.8H52.25L55.01 45H54.31L53.48 42.74H50.2L49.35 45H48.65ZM50.43 42.16H53.25L51.84 38.38L50.43 42.16ZM55.8499 45V37.8H56.4499V42.28L58.9899 39.82H59.8099L57.8699 41.69L60.0399 45H59.3699L57.4299 42.11L56.4499 43.04V45H55.8499ZM64.3999 39.82H64.9999V45H64.3999V44.28C64.3199 44.3733 64.2299 44.47 64.1299 44.57C64.0299 44.67 63.9133 44.7633 63.7799 44.85C63.6533 44.93 63.5033 44.9967 63.3299 45.05C63.1566 45.11 62.9566 45.14 62.7299 45.14C62.3833 45.14 62.0933 45.0933 61.8599 45C61.6266 44.9 61.4366 44.7633 61.2899 44.59C61.1499 44.4167 61.0466 44.2167 60.9799 43.99C60.9199 43.7567 60.8899 43.5033 60.8899 43.23V39.82H61.4899V43.22C61.4899 43.6667 61.5933 44.01 61.7999 44.25C62.0066 44.4833 62.3466 44.6 62.8199 44.6C63.0666 44.6 63.2866 44.5533 63.4799 44.46C63.6799 44.36 63.8466 44.2233 63.9799 44.05C64.1133 43.8767 64.2166 43.67 64.2899 43.43C64.3633 43.19 64.3999 42.9267 64.3999 42.64V39.82ZM67.0466 45H66.4466V39.82H67.0466V40.54C67.2866 40.2867 67.5332 40.08 67.7866 39.92C68.0466 39.76 68.3566 39.68 68.7166 39.68C69.0366 39.68 69.3332 39.7367 69.6066 39.85C69.8799 39.9567 70.1099 40.1467 70.2966 40.42C70.4232 40.6067 70.4966 40.8 70.5166 41C70.5432 41.1933 70.5566 41.3967 70.5566 41.61V45H69.9566V41.62C69.9566 41.1533 69.8532 40.8033 69.6466 40.57C69.4399 40.3367 69.0966 40.22 68.6166 40.22C68.4299 40.22 68.2599 40.25 68.1066 40.31C67.9532 40.3633 67.8132 40.4367 67.6866 40.53C67.5666 40.6233 67.4632 40.73 67.3766 40.85C67.2899 40.97 67.2232 41.0967 67.1766 41.23C67.1166 41.3967 67.0799 41.5567 67.0666 41.71C67.0532 41.8633 67.0466 42.03 67.0466 42.21V45Z" fill="black"/>
</svg>
