<svg width="120" height="60" viewBox="0 0 120 60" fill="none" xmlns="http://www.w3.org/2000/svg">
<rect width="120" height="60" fill="white"/>
<path d="M68 32V30C68 28.9391 67.5786 27.9217 66.8284 27.1716C66.0783 26.4214 65.0609 26 64 26H56C54.9391 26 53.9217 26.4214 53.1716 27.1716C52.4214 27.9217 52 28.9391 52 30V32" stroke="#0D28A6" stroke-width="2" stroke-linecap="round" stroke-linejoin="round"/>
<path d="M60 22C62.2091 22 64 20.2091 64 18C64 15.7909 62.2091 14 60 14C57.7909 14 56 15.7909 56 18C56 20.2091 57.7909 22 60 22Z" stroke="#0D28A6" stroke-width="2" stroke-linecap="round" stroke-linejoin="round"/>
<path d="M49.7295 42.2803H51.5557L50.6572 39.4482L49.7295 42.2803ZM49.8223 37.8027H51.5215L54.0703 45H52.4395L51.9756 43.5205H49.3242L48.8262 45H47.2539L49.8223 37.8027ZM54.8613 37.8271H56.2285V41.7041L57.9619 39.7021H59.6855L57.8252 41.7383L59.7588 45H58.0791L56.8047 42.7246L56.2285 43.3252V45H54.8613V37.8271ZM61.8291 39.6777V42.8857C61.8291 43.1885 61.8649 43.4163 61.9365 43.5693C62.0635 43.8395 62.3125 43.9746 62.6836 43.9746C63.1589 43.9746 63.4844 43.7826 63.6602 43.3984C63.7513 43.1901 63.7969 42.915 63.7969 42.5732V39.6777H65.208V45H63.8555V44.248C63.8424 44.2643 63.8099 44.3132 63.7578 44.3945C63.7057 44.4759 63.6439 44.5475 63.5723 44.6094C63.3542 44.8047 63.1426 44.9382 62.9375 45.0098C62.7357 45.0814 62.498 45.1172 62.2246 45.1172C61.4368 45.1172 60.9062 44.834 60.6328 44.2676C60.4798 43.9551 60.4033 43.4945 60.4033 42.8857V39.6777H61.8291ZM69.5049 39.5508C70.055 39.5508 70.5042 39.6956 70.8525 39.9854C71.2041 40.2718 71.3799 40.7487 71.3799 41.416V45H69.9541V41.7627C69.9541 41.4827 69.9167 41.2679 69.8418 41.1182C69.7051 40.8447 69.4447 40.708 69.0605 40.708C68.5885 40.708 68.2646 40.9082 68.0889 41.3086C67.9977 41.5202 67.9521 41.7904 67.9521 42.1191V45H66.5654V39.6875H67.9082V40.4639C68.0872 40.1904 68.2565 39.9935 68.416 39.873C68.7025 39.6582 69.0654 39.5508 69.5049 39.5508Z" fill="#0D28A6"/>
</svg>
