<svg width="120" height="60" viewBox="0 0 120 60" fill="none" xmlns="http://www.w3.org/2000/svg">
<rect width="120" height="60" fill="white"/>
<path d="M56 29H69" stroke="#222222" stroke-linecap="round" stroke-linejoin="round"/>
<path d="M51 29H51.01" stroke="#222222" stroke-linecap="round" stroke-linejoin="round"/>
<path d="M56 23H69" stroke="#222222" stroke-linecap="round" stroke-linejoin="round"/>
<path d="M51 23H51.01" stroke="#222222" stroke-linecap="round" stroke-linejoin="round"/>
<path d="M56 17H69" stroke="#222222" stroke-linecap="round" stroke-linejoin="round"/>
<path d="M51 17H51.01" stroke="#222222" stroke-linecap="round" stroke-linejoin="round"/>
<path d="M33.31 45V37.8H35.77C35.97 37.8 36.1667 37.8067 36.36 37.82C36.5533 37.8267 36.7433 37.85 36.93 37.89C37.1167 37.9233 37.2967 37.9767 37.47 38.05C37.65 38.1233 37.8233 38.22 37.99 38.34C38.23 38.5133 38.4267 38.7267 38.58 38.98C38.7333 39.2267 38.8533 39.49 38.94 39.77C39.0333 40.0433 39.0967 40.3233 39.13 40.61C39.17 40.89 39.19 41.15 39.19 41.39C39.19 41.63 39.1733 41.8733 39.14 42.12C39.1133 42.3667 39.0667 42.61 39 42.85C38.9333 43.0833 38.8433 43.31 38.73 43.53C38.6233 43.7433 38.4867 43.94 38.32 44.12C38.1533 44.3067 37.97 44.4567 37.77 44.57C37.5767 44.6833 37.37 44.7733 37.15 44.84C36.9367 44.9 36.7133 44.9433 36.48 44.97C36.2467 44.99 36.01 45 35.77 45H33.31ZM33.99 44.42H35.62C35.9267 44.42 36.2133 44.4033 36.48 44.37C36.7533 44.33 37.03 44.2367 37.31 44.09C37.55 43.97 37.7467 43.8067 37.9 43.6C38.0533 43.3933 38.1733 43.17 38.26 42.93C38.3533 42.6833 38.4167 42.4267 38.45 42.16C38.49 41.8933 38.51 41.6367 38.51 41.39C38.51 41.13 38.4933 40.8667 38.46 40.6C38.4267 40.3267 38.3633 40.07 38.27 39.83C38.1767 39.5833 38.05 39.36 37.89 39.16C37.73 38.9533 37.5233 38.7833 37.27 38.65C37.0567 38.5367 36.8033 38.4633 36.51 38.43C36.2167 38.3967 35.92 38.38 35.62 38.38H33.99V44.42ZM43.8268 42.28C43.5735 42.3867 43.3168 42.4567 43.0568 42.49C42.7968 42.5233 42.5368 42.55 42.2768 42.57C41.8168 42.6033 41.4568 42.7067 41.1968 42.88C40.9435 43.0533 40.8168 43.3167 40.8168 43.67C40.8168 43.83 40.8468 43.97 40.9068 44.09C40.9735 44.2033 41.0568 44.3 41.1568 44.38C41.2635 44.4533 41.3835 44.51 41.5168 44.55C41.6568 44.5833 41.7968 44.6 41.9368 44.6C42.1768 44.6 42.4101 44.57 42.6368 44.51C42.8635 44.45 43.0635 44.36 43.2368 44.24C43.4168 44.1133 43.5601 43.9567 43.6668 43.77C43.7735 43.5767 43.8268 43.35 43.8268 43.09V42.28ZM42.8168 41.98C42.9301 41.9667 43.0635 41.9467 43.2168 41.92C43.3768 41.8933 43.5068 41.8567 43.6068 41.81C43.7068 41.7633 43.7668 41.6867 43.7868 41.58C43.8135 41.4667 43.8268 41.3633 43.8268 41.27C43.8268 40.9633 43.7268 40.7133 43.5268 40.52C43.3335 40.32 43.0035 40.22 42.5368 40.22C42.3301 40.22 42.1401 40.24 41.9668 40.28C41.7935 40.3133 41.6401 40.3767 41.5068 40.47C41.3801 40.5567 41.2735 40.6767 41.1868 40.83C41.1068 40.9767 41.0535 41.1633 41.0268 41.39H40.4168C40.4368 41.0833 40.5068 40.8233 40.6268 40.61C40.7468 40.39 40.9001 40.2133 41.0868 40.08C41.2801 39.94 41.5001 39.84 41.7468 39.78C42.0001 39.7133 42.2668 39.68 42.5468 39.68C42.8068 39.68 43.0501 39.71 43.2768 39.77C43.5101 39.8233 43.7101 39.9133 43.8768 40.04C44.0501 40.16 44.1835 40.3233 44.2768 40.53C44.3768 40.7367 44.4268 40.99 44.4268 41.29V44.11C44.4268 44.3433 44.4668 44.4933 44.5468 44.56C44.6335 44.62 44.8035 44.6033 45.0568 44.51V44.98C45.0101 44.9933 44.9401 45.0133 44.8468 45.04C44.7601 45.0667 44.6735 45.08 44.5868 45.08C44.4935 45.08 44.4035 45.07 44.3168 45.05C44.2168 45.0367 44.1368 45.0067 44.0768 44.96C44.0168 44.9067 43.9668 44.8467 43.9268 44.78C43.8935 44.7067 43.8701 44.63 43.8568 44.55C43.8435 44.4633 43.8368 44.3733 43.8368 44.28C43.5835 44.56 43.2935 44.7733 42.9668 44.92C42.6401 45.0667 42.2868 45.14 41.9068 45.14C41.6801 45.14 41.4601 45.11 41.2468 45.05C41.0401 44.99 40.8568 44.8967 40.6968 44.77C40.5368 44.6433 40.4101 44.49 40.3168 44.31C40.2235 44.1233 40.1768 43.9033 40.1768 43.65C40.1768 42.77 40.7801 42.25 41.9868 42.09L42.8168 41.98ZM45.4734 40.32V39.82H46.2434V39C46.2434 38.5867 46.3268 38.26 46.4934 38.02C46.6601 37.78 46.9434 37.66 47.3434 37.66C47.4368 37.66 47.5234 37.6633 47.6034 37.67C47.6834 37.6767 47.7634 37.6867 47.8434 37.7V38.25C47.7101 38.2167 47.5901 38.2 47.4834 38.2C47.3301 38.2 47.2101 38.23 47.1234 38.29C47.0368 38.3433 46.9734 38.4167 46.9334 38.51C46.8934 38.6033 46.8668 38.71 46.8534 38.83C46.8468 38.9433 46.8434 39.06 46.8434 39.18V39.82H47.8434V40.32H46.8434V45H46.2434V40.32H45.4734ZM50.5966 45.02C50.5233 45.0333 50.4266 45.0567 50.3066 45.09C50.1866 45.1233 50.0533 45.14 49.9066 45.14C49.6066 45.14 49.3766 45.0667 49.2166 44.92C49.0633 44.7667 48.9866 44.4967 48.9866 44.11V40.32H48.2566V39.82H48.9866V38.38H49.5866V39.82H50.5566V40.32H49.5866V43.87C49.5866 43.9967 49.59 44.1067 49.5966 44.2C49.6033 44.2933 49.6233 44.37 49.6566 44.43C49.69 44.49 49.74 44.5333 49.8066 44.56C49.88 44.5867 49.98 44.6 50.1066 44.6C50.1866 44.6 50.2666 44.5933 50.3466 44.58C50.4333 44.5667 50.5166 44.55 50.5966 44.53V45.02ZM54.9498 42.28C54.6965 42.3867 54.4398 42.4567 54.1798 42.49C53.9198 42.5233 53.6598 42.55 53.3998 42.57C52.9398 42.6033 52.5798 42.7067 52.3198 42.88C52.0665 43.0533 51.9398 43.3167 51.9398 43.67C51.9398 43.83 51.9698 43.97 52.0298 44.09C52.0965 44.2033 52.1798 44.3 52.2798 44.38C52.3865 44.4533 52.5065 44.51 52.6398 44.55C52.7798 44.5833 52.9198 44.6 53.0598 44.6C53.2998 44.6 53.5332 44.57 53.7598 44.51C53.9865 44.45 54.1865 44.36 54.3598 44.24C54.5398 44.1133 54.6832 43.9567 54.7898 43.77C54.8965 43.5767 54.9498 43.35 54.9498 43.09V42.28ZM53.9398 41.98C54.0532 41.9667 54.1865 41.9467 54.3398 41.92C54.4998 41.8933 54.6298 41.8567 54.7298 41.81C54.8298 41.7633 54.8898 41.6867 54.9098 41.58C54.9365 41.4667 54.9498 41.3633 54.9498 41.27C54.9498 40.9633 54.8498 40.7133 54.6498 40.52C54.4565 40.32 54.1265 40.22 53.6598 40.22C53.4532 40.22 53.2632 40.24 53.0898 40.28C52.9165 40.3133 52.7632 40.3767 52.6298 40.47C52.5032 40.5567 52.3965 40.6767 52.3098 40.83C52.2298 40.9767 52.1765 41.1633 52.1498 41.39H51.5398C51.5598 41.0833 51.6298 40.8233 51.7498 40.61C51.8698 40.39 52.0232 40.2133 52.2098 40.08C52.4032 39.94 52.6232 39.84 52.8698 39.78C53.1232 39.7133 53.3898 39.68 53.6698 39.68C53.9298 39.68 54.1732 39.71 54.3998 39.77C54.6332 39.8233 54.8332 39.9133 54.9998 40.04C55.1732 40.16 55.3065 40.3233 55.3998 40.53C55.4998 40.7367 55.5498 40.99 55.5498 41.29V44.11C55.5498 44.3433 55.5898 44.4933 55.6698 44.56C55.7565 44.62 55.9265 44.6033 56.1798 44.51V44.98C56.1332 44.9933 56.0632 45.0133 55.9698 45.04C55.8832 45.0667 55.7965 45.08 55.7098 45.08C55.6165 45.08 55.5265 45.07 55.4398 45.05C55.3398 45.0367 55.2598 45.0067 55.1998 44.96C55.1398 44.9067 55.0898 44.8467 55.0498 44.78C55.0165 44.7067 54.9932 44.63 54.9798 44.55C54.9665 44.4633 54.9598 44.3733 54.9598 44.28C54.7065 44.56 54.4165 44.7733 54.0898 44.92C53.7632 45.0667 53.4098 45.14 53.0298 45.14C52.8032 45.14 52.5832 45.11 52.3698 45.05C52.1632 44.99 51.9798 44.8967 51.8198 44.77C51.6598 44.6433 51.5332 44.49 51.4398 44.31C51.3465 44.1233 51.2998 43.9033 51.2998 43.65C51.2998 42.77 51.9032 42.25 53.1098 42.09L53.9398 41.98ZM57.7465 45H57.1465V39.82H57.7465V40.79H57.7665C57.9332 40.3767 58.1465 40.09 58.4065 39.93C58.6732 39.7633 59.0232 39.68 59.4565 39.68V40.33C59.1165 40.3233 58.8365 40.3767 58.6165 40.49C58.3965 40.6033 58.2198 40.7567 58.0865 40.95C57.9598 41.1433 57.8698 41.3733 57.8165 41.64C57.7698 41.9 57.7465 42.1733 57.7465 42.46V45ZM63.2898 45V37.8H64.3298L66.6898 44.15H66.7098L69.0298 37.8H70.0598V45H69.3798V38.58H69.3598L66.9998 45H66.3598L63.9898 38.58H63.9698V45H63.2898ZM73.6198 45.14C73.2865 45.1333 72.9732 45.0733 72.6798 44.96C72.3932 44.8467 72.1398 44.6767 71.9198 44.45C71.7065 44.2233 71.5365 43.94 71.4098 43.6C71.2832 43.26 71.2198 42.8633 71.2198 42.41C71.2198 42.03 71.2698 41.6767 71.3698 41.35C71.4698 41.0167 71.6198 40.7267 71.8198 40.48C72.0198 40.2333 72.2698 40.04 72.5698 39.9C72.8698 39.7533 73.2198 39.68 73.6198 39.68C74.0265 39.68 74.3798 39.7533 74.6798 39.9C74.9798 40.04 75.2298 40.2333 75.4298 40.48C75.6298 40.72 75.7765 41.0067 75.8698 41.34C75.9698 41.6733 76.0198 42.03 76.0198 42.41C76.0198 42.8233 75.9632 43.1967 75.8498 43.53C75.7365 43.8633 75.5732 44.15 75.3598 44.39C75.1532 44.63 74.8998 44.8167 74.5998 44.95C74.3065 45.0767 73.9798 45.14 73.6198 45.14ZM75.3798 42.41C75.3798 42.1033 75.3465 41.8167 75.2798 41.55C75.2132 41.2833 75.1098 41.0533 74.9698 40.86C74.8298 40.66 74.6498 40.5033 74.4298 40.39C74.2098 40.2767 73.9398 40.22 73.6198 40.22C73.3065 40.22 73.0365 40.2833 72.8098 40.41C72.5898 40.53 72.4098 40.6933 72.2698 40.9C72.1298 41.1 72.0265 41.3333 71.9598 41.6C71.8932 41.86 71.8598 42.13 71.8598 42.41C71.8598 42.73 71.8965 43.0267 71.9698 43.3C72.0498 43.5667 72.1632 43.7967 72.3098 43.99C72.4565 44.1833 72.6398 44.3333 72.8598 44.44C73.0798 44.5467 73.3332 44.6 73.6198 44.6C73.9332 44.6 74.1998 44.54 74.4198 44.42C74.6465 44.2933 74.8298 44.1267 74.9698 43.92C75.1098 43.7133 75.2132 43.48 75.2798 43.22C75.3465 42.96 75.3798 42.69 75.3798 42.41ZM77.7865 42.39C77.7865 42.7033 77.8232 42.9967 77.8965 43.27C77.9765 43.5367 78.0898 43.77 78.2365 43.97C78.3832 44.1633 78.5665 44.3167 78.7865 44.43C79.0065 44.5433 79.2565 44.6 79.5365 44.6C79.7898 44.6 80.0232 44.5567 80.2365 44.47C80.4498 44.3767 80.6365 44.2433 80.7965 44.07C80.9565 43.8967 81.0798 43.6867 81.1665 43.44C81.2598 43.1867 81.3065 42.8967 81.3065 42.57C81.3198 42.2433 81.2932 41.94 81.2265 41.66C81.1598 41.3733 81.0532 41.1233 80.9065 40.91C80.7598 40.6967 80.5698 40.53 80.3365 40.41C80.1098 40.2833 79.8432 40.22 79.5365 40.22C79.2632 40.22 79.0165 40.28 78.7965 40.4C78.5832 40.5133 78.3998 40.67 78.2465 40.87C78.0998 41.0633 77.9865 41.2933 77.9065 41.56C77.8265 41.82 77.7865 42.0967 77.7865 42.39ZM77.7865 45H77.1865V37.8H77.7865V40.65C77.9798 40.33 78.2432 40.09 78.5765 39.93C78.9165 39.7633 79.2698 39.68 79.6365 39.68C80.0298 39.68 80.3698 39.7567 80.6565 39.91C80.9498 40.0567 81.1898 40.2567 81.3765 40.51C81.5698 40.7567 81.7132 41.0467 81.8065 41.38C81.8998 41.7133 81.9465 42.06 81.9465 42.42C81.9465 42.8 81.9032 43.1567 81.8165 43.49C81.7298 43.8233 81.5898 44.1133 81.3965 44.36C81.2098 44.6 80.9698 44.79 80.6765 44.93C80.3832 45.07 80.0265 45.14 79.6065 45.14C79.4398 45.14 79.2698 45.1167 79.0965 45.07C78.9232 45.0233 78.7532 44.9567 78.5865 44.87C78.4265 44.7833 78.2765 44.6767 78.1365 44.55C78.0032 44.4167 77.8932 44.2633 77.8065 44.09H77.7865V45ZM83.144 45V39.82H83.744V45H83.144ZM83.114 38.69V37.8H83.774V38.69H83.114ZM85.3608 45V37.8H85.9608V45H85.3608Z" fill="black"/>
</svg>
