<svg width="120" height="60" viewBox="0 0 120 60" fill="none" xmlns="http://www.w3.org/2000/svg">
<rect width="120" height="60" fill="white"/>
<path d="M56 29H69" stroke="#0D28A6" stroke-width="2" stroke-linecap="round" stroke-linejoin="round"/>
<path d="M51 29H51.01" stroke="#0D28A6" stroke-width="2" stroke-linecap="round" stroke-linejoin="round"/>
<path d="M56 23H69" stroke="#0D28A6" stroke-width="2" stroke-linecap="round" stroke-linejoin="round"/>
<path d="M51 23H51.01" stroke="#0D28A6" stroke-width="2" stroke-linecap="round" stroke-linejoin="round"/>
<path d="M56 17H69" stroke="#0D28A6" stroke-width="2" stroke-linecap="round" stroke-linejoin="round"/>
<path d="M51 17H51.01" stroke="#0D28A6" stroke-width="2" stroke-linecap="round" stroke-linejoin="round"/>
<path d="M33.2217 39.0527V43.75H34.6084C35.318 43.75 35.8128 43.4001 36.0928 42.7002C36.2458 42.3161 36.3223 41.8587 36.3223 41.3281C36.3223 40.5957 36.2067 40.0342 35.9756 39.6436C35.7477 39.2497 35.292 39.0527 34.6084 39.0527H33.2217ZM34.8623 37.8027C35.3083 37.8092 35.6794 37.8613 35.9756 37.959C36.4801 38.125 36.8887 38.4294 37.2012 38.8721C37.4518 39.2301 37.6227 39.6175 37.7139 40.0342C37.805 40.4508 37.8506 40.848 37.8506 41.2256C37.8506 42.1826 37.6585 42.9932 37.2744 43.6572C36.7536 44.5524 35.9495 45 34.8623 45H31.7617V37.8027H34.8623ZM41.8105 42.4121C41.7227 42.4674 41.6331 42.513 41.542 42.5488C41.4541 42.5814 41.332 42.6123 41.1758 42.6416L40.8633 42.7002C40.5703 42.7523 40.3604 42.8158 40.2334 42.8906C40.0186 43.0176 39.9111 43.2145 39.9111 43.4814C39.9111 43.7191 39.9762 43.8916 40.1064 43.999C40.2399 44.1032 40.401 44.1553 40.5898 44.1553C40.8893 44.1553 41.1644 44.0674 41.415 43.8916C41.6689 43.7158 41.8008 43.3952 41.8105 42.9297V42.4121ZM40.9658 41.7627C41.223 41.7301 41.4069 41.6895 41.5176 41.6406C41.7161 41.556 41.8154 41.4242 41.8154 41.2451C41.8154 41.027 41.7389 40.8773 41.5859 40.7959C41.4362 40.7113 41.2148 40.6689 40.9219 40.6689C40.5931 40.6689 40.3604 40.7503 40.2236 40.9131C40.126 41.0335 40.0609 41.1963 40.0283 41.4014H38.6855C38.7148 40.9359 38.8451 40.5534 39.0762 40.2539C39.444 39.7852 40.0755 39.5508 40.9707 39.5508C41.5534 39.5508 42.071 39.6663 42.5234 39.8975C42.9759 40.1286 43.2021 40.5648 43.2021 41.2061V43.6475C43.2021 43.8167 43.2054 44.0218 43.2119 44.2627C43.2217 44.445 43.2493 44.5687 43.2949 44.6338C43.3405 44.6989 43.4089 44.7526 43.5 44.7949V45H41.9863C41.944 44.8926 41.9147 44.7917 41.8984 44.6973C41.8822 44.6029 41.8691 44.4954 41.8594 44.375C41.6673 44.5833 41.446 44.7607 41.1953 44.9072C40.8958 45.0798 40.5573 45.166 40.1797 45.166C39.6979 45.166 39.2992 45.0293 38.9834 44.7559C38.6709 44.4792 38.5146 44.0885 38.5146 43.584C38.5146 42.9297 38.7669 42.4561 39.2715 42.1631C39.5482 42.0036 39.9551 41.8896 40.4922 41.8213L40.9658 41.7627ZM46.4053 37.7295C46.4932 37.7295 46.5729 37.7327 46.6445 37.7393C46.7161 37.7425 46.8138 37.749 46.9375 37.7588V38.8916C46.8594 38.8818 46.7275 38.8753 46.542 38.8721C46.3597 38.8656 46.2327 38.9062 46.1611 38.9941C46.0928 39.0788 46.0586 39.1732 46.0586 39.2773C46.0586 39.3815 46.0586 39.5312 46.0586 39.7266H46.9717V40.708H46.0586V45H44.6719V40.708H43.8955V39.7266H44.6572V39.3848C44.6572 38.8151 44.7533 38.4229 44.9453 38.208C45.1471 37.889 45.6338 37.7295 46.4053 37.7295ZM47.2256 40.7178V39.7266H47.9678V38.2422H49.3447V39.7266H50.209V40.7178H49.3447V43.5303C49.3447 43.7484 49.3724 43.8851 49.4277 43.9404C49.4831 43.9925 49.6523 44.0186 49.9355 44.0186C49.9779 44.0186 50.0218 44.0186 50.0674 44.0186C50.1162 44.0153 50.1634 44.012 50.209 44.0088V45.0488L49.5498 45.0732C48.8923 45.096 48.443 44.9821 48.2021 44.7314C48.0459 44.5719 47.9678 44.3262 47.9678 43.9941V40.7178H47.2256ZM54.0371 42.4121C53.9492 42.4674 53.8597 42.513 53.7686 42.5488C53.6807 42.5814 53.5586 42.6123 53.4023 42.6416L53.0898 42.7002C52.7969 42.7523 52.5869 42.8158 52.46 42.8906C52.2451 43.0176 52.1377 43.2145 52.1377 43.4814C52.1377 43.7191 52.2028 43.8916 52.333 43.999C52.4665 44.1032 52.6276 44.1553 52.8164 44.1553C53.1159 44.1553 53.391 44.0674 53.6416 43.8916C53.8955 43.7158 54.0273 43.3952 54.0371 42.9297V42.4121ZM53.1924 41.7627C53.4495 41.7301 53.6335 41.6895 53.7441 41.6406C53.9427 41.556 54.042 41.4242 54.042 41.2451C54.042 41.027 53.9655 40.8773 53.8125 40.7959C53.6628 40.7113 53.4414 40.6689 53.1484 40.6689C52.8197 40.6689 52.5869 40.7503 52.4502 40.9131C52.3525 41.0335 52.2874 41.1963 52.2549 41.4014H50.9121C50.9414 40.9359 51.0716 40.5534 51.3027 40.2539C51.6706 39.7852 52.3021 39.5508 53.1973 39.5508C53.7799 39.5508 54.2975 39.6663 54.75 39.8975C55.2025 40.1286 55.4287 40.5648 55.4287 41.2061V43.6475C55.4287 43.8167 55.432 44.0218 55.4385 44.2627C55.4482 44.445 55.4759 44.5687 55.5215 44.6338C55.5671 44.6989 55.6354 44.7526 55.7266 44.7949V45H54.2129C54.1706 44.8926 54.1413 44.7917 54.125 44.6973C54.1087 44.6029 54.0957 44.4954 54.0859 44.375C53.8939 44.5833 53.6725 44.7607 53.4219 44.9072C53.1224 45.0798 52.7839 45.166 52.4062 45.166C51.9245 45.166 51.5257 45.0293 51.21 44.7559C50.8975 44.4792 50.7412 44.0885 50.7412 43.584C50.7412 42.9297 50.9935 42.4561 51.498 42.1631C51.7747 42.0036 52.1816 41.8896 52.7188 41.8213L53.1924 41.7627ZM59.5596 39.5508C59.5856 39.5508 59.6068 39.5524 59.623 39.5557C59.6426 39.5557 59.6833 39.5573 59.7451 39.5605V40.9863C59.6572 40.9766 59.5791 40.9701 59.5107 40.9668C59.4424 40.9635 59.387 40.9619 59.3447 40.9619C58.7848 40.9619 58.4089 41.1442 58.2168 41.5088C58.1094 41.7139 58.0557 42.0296 58.0557 42.4561V45H56.6543V39.6777H57.9824V40.6055C58.1973 40.2507 58.3844 40.0081 58.5439 39.8779C58.8044 39.6598 59.1429 39.5508 59.5596 39.5508ZM68.2314 37.8027H70.3945V45H68.9932V40.1318C68.9932 39.9919 68.9948 39.7965 68.998 39.5459C69.0013 39.292 69.0029 39.0967 69.0029 38.96L67.6406 45H66.1807L64.8281 38.96C64.8281 39.0967 64.8298 39.292 64.833 39.5459C64.8363 39.7965 64.8379 39.9919 64.8379 40.1318V45H63.4365V37.8027H65.624L66.9326 43.4619L68.2314 37.8027ZM74.0664 44.0186C74.4733 44.0186 74.7858 43.8737 75.0039 43.584C75.222 43.2943 75.3311 42.8825 75.3311 42.3486C75.3311 41.8148 75.222 41.4046 75.0039 41.1182C74.7858 40.8285 74.4733 40.6836 74.0664 40.6836C73.6595 40.6836 73.3454 40.8285 73.124 41.1182C72.9059 41.4046 72.7969 41.8148 72.7969 42.3486C72.7969 42.8825 72.9059 43.2943 73.124 43.584C73.3454 43.8737 73.6595 44.0186 74.0664 44.0186ZM76.791 42.3486C76.791 43.1299 76.5664 43.7988 76.1172 44.3555C75.668 44.9089 74.986 45.1855 74.0713 45.1855C73.1566 45.1855 72.4746 44.9089 72.0254 44.3555C71.5762 43.7988 71.3516 43.1299 71.3516 42.3486C71.3516 41.5804 71.5762 40.9147 72.0254 40.3516C72.4746 39.7884 73.1566 39.5068 74.0713 39.5068C74.986 39.5068 75.668 39.7884 76.1172 40.3516C76.5664 40.9147 76.791 41.5804 76.791 42.3486ZM80.668 39.5605C81.3678 39.5605 81.9147 39.8128 82.3086 40.3174C82.7057 40.8219 82.9043 41.473 82.9043 42.2705C82.9043 43.0973 82.709 43.7826 82.3184 44.3262C81.9277 44.8698 81.3825 45.1416 80.6826 45.1416C80.2432 45.1416 79.89 45.0537 79.623 44.8779C79.4635 44.7738 79.291 44.5915 79.1055 44.3311V45H77.7432V37.8125H79.1299V40.3711C79.3057 40.1237 79.4993 39.9349 79.7109 39.8047C79.9616 39.6419 80.2806 39.5605 80.668 39.5605ZM80.3115 43.9941C80.6696 43.9941 80.9479 43.8493 81.1465 43.5596C81.3451 43.2699 81.4443 42.889 81.4443 42.417C81.4443 42.0394 81.3955 41.7269 81.2979 41.4795C81.1123 41.0107 80.7705 40.7764 80.2725 40.7764C79.7679 40.7764 79.4212 41.0059 79.2324 41.4648C79.1348 41.709 79.0859 42.0247 79.0859 42.4121C79.0859 42.8678 79.1868 43.2454 79.3887 43.5449C79.5905 43.8444 79.8981 43.9941 80.3115 43.9941ZM85.3359 39.043H83.9248V37.7588H85.3359V39.043ZM83.9248 39.6777H85.3359V45H83.9248V39.6777ZM88.1094 45H86.7178V37.8027H88.1094V45Z" fill="#0D28A6"/>
</svg>
