<svg width="120" height="60" viewBox="0 0 120 60" fill="none" xmlns="http://www.w3.org/2000/svg">
<rect width="120" height="60" fill="white"/>
<path d="M51 20L60 13L69 20V31C69 31.5304 68.7893 32.0391 68.4142 32.4142C68.0391 32.7893 67.5304 33 67 33H53C52.4696 33 51.9609 32.7893 51.5858 32.4142C51.2107 32.0391 51 31.5304 51 31V20Z" stroke="#0D28A6" stroke-width="2" stroke-linecap="round" stroke-linejoin="round"/>
<path d="M57 33V23H63V33" stroke="#0D28A6" stroke-width="2" stroke-linecap="round" stroke-linejoin="round"/>
<path d="M46.752 45V37.8027H48.2412V40.5469H51.0537V37.8027H52.5479V45H51.0537V41.7871H48.2412V45H46.752ZM56.2637 44.0186C56.6706 44.0186 56.9831 43.8737 57.2012 43.584C57.4193 43.2943 57.5283 42.8825 57.5283 42.3486C57.5283 41.8148 57.4193 41.4046 57.2012 41.1182C56.9831 40.8285 56.6706 40.6836 56.2637 40.6836C55.8568 40.6836 55.5426 40.8285 55.3213 41.1182C55.1032 41.4046 54.9941 41.8148 54.9941 42.3486C54.9941 42.8825 55.1032 43.2943 55.3213 43.584C55.5426 43.8737 55.8568 44.0186 56.2637 44.0186ZM58.9883 42.3486C58.9883 43.1299 58.7637 43.7988 58.3145 44.3555C57.8652 44.9089 57.1833 45.1855 56.2686 45.1855C55.3538 45.1855 54.6719 44.9089 54.2227 44.3555C53.7734 43.7988 53.5488 43.1299 53.5488 42.3486C53.5488 41.5804 53.7734 40.9147 54.2227 40.3516C54.6719 39.7884 55.3538 39.5068 56.2686 39.5068C57.1833 39.5068 57.8652 39.7884 58.3145 40.3516C58.7637 40.9147 58.9883 41.5804 58.9883 42.3486ZM65.9365 39.5605C66.1709 39.5605 66.402 39.6061 66.6299 39.6973C66.8577 39.7884 67.0645 39.9479 67.25 40.1758C67.3997 40.3613 67.5007 40.5892 67.5527 40.8594C67.5853 41.0384 67.6016 41.3005 67.6016 41.6455L67.5918 45H66.166V41.6113C66.166 41.4095 66.1335 41.2435 66.0684 41.1133C65.9447 40.8659 65.7168 40.7422 65.3848 40.7422C65.0007 40.7422 64.7354 40.9017 64.5889 41.2207C64.514 41.39 64.4766 41.5934 64.4766 41.8311V45H63.0752V41.8311C63.0752 41.5153 63.0426 41.2858 62.9775 41.1426C62.8604 40.8854 62.6309 40.7568 62.2891 40.7568C61.8919 40.7568 61.625 40.8854 61.4883 41.1426C61.4134 41.2891 61.376 41.5072 61.376 41.7969V45H59.9648V39.6875H61.3174V40.4639C61.4899 40.1872 61.6527 39.9902 61.8057 39.873C62.0758 39.6647 62.4258 39.5605 62.8555 39.5605C63.2624 39.5605 63.5911 39.6501 63.8418 39.8291C64.0436 39.9951 64.1966 40.2083 64.3008 40.4688C64.4831 40.1562 64.7093 39.9268 64.9795 39.7803C65.266 39.6338 65.585 39.5605 65.9365 39.5605ZM70.9854 40.6836C70.6631 40.6836 70.4124 40.7845 70.2334 40.9863C70.0576 41.1882 69.9469 41.4616 69.9014 41.8066H72.0645C72.0417 41.4388 71.9294 41.1605 71.7275 40.9717C71.529 40.7796 71.2816 40.6836 70.9854 40.6836ZM70.9854 39.5361C71.4281 39.5361 71.8268 39.6191 72.1816 39.7852C72.5365 39.9512 72.8294 40.2132 73.0605 40.5713C73.2689 40.887 73.404 41.2533 73.4658 41.6699C73.5016 41.9141 73.5163 42.2656 73.5098 42.7246H69.8672C69.8867 43.2585 70.0544 43.6328 70.3701 43.8477C70.5622 43.9811 70.7933 44.0479 71.0635 44.0479C71.3499 44.0479 71.5827 43.9665 71.7617 43.8037C71.8594 43.7158 71.9456 43.5938 72.0205 43.4375H73.4414C73.4056 43.7533 73.2412 44.0739 72.9482 44.3994C72.4925 44.917 71.8545 45.1758 71.0342 45.1758C70.3571 45.1758 69.7598 44.9577 69.2422 44.5215C68.7246 44.0853 68.4658 43.3757 68.4658 42.3926C68.4658 41.4714 68.6986 40.765 69.1641 40.2734C69.6328 39.7819 70.2399 39.5361 70.9854 39.5361Z" fill="#0D28A6"/>
</svg>
