<svg width="120" height="60" viewBox="0 0 120 60" fill="none" xmlns="http://www.w3.org/2000/svg">
<rect width="120" height="60" fill="white"/>
<path d="M51 20L60 13L69 20V31C69 31.5304 68.7893 32.0391 68.4142 32.4142C68.0391 32.7893 67.5304 33 67 33H53C52.4696 33 51.9609 32.7893 51.5858 32.4142C51.2107 32.0391 51 31.5304 51 31V20Z" stroke="#222222" stroke-linecap="round" stroke-linejoin="round"/>
<path d="M57 33V23H63V33" stroke="#222222" stroke-linecap="round" stroke-linejoin="round"/>
<path d="M47.3 45V37.8H47.98V40.89H52.24V37.8H52.92V45H52.24V41.47H47.98V45H47.3ZM56.4968 45.14C56.1635 45.1333 55.8501 45.0733 55.5568 44.96C55.2701 44.8467 55.0168 44.6767 54.7968 44.45C54.5835 44.2233 54.4135 43.94 54.2868 43.6C54.1601 43.26 54.0968 42.8633 54.0968 42.41C54.0968 42.03 54.1468 41.6767 54.2468 41.35C54.3468 41.0167 54.4968 40.7267 54.6968 40.48C54.8968 40.2333 55.1468 40.04 55.4468 39.9C55.7468 39.7533 56.0968 39.68 56.4968 39.68C56.9035 39.68 57.2568 39.7533 57.5568 39.9C57.8568 40.04 58.1068 40.2333 58.3068 40.48C58.5068 40.72 58.6535 41.0067 58.7468 41.34C58.8468 41.6733 58.8968 42.03 58.8968 42.41C58.8968 42.8233 58.8401 43.1967 58.7268 43.53C58.6135 43.8633 58.4501 44.15 58.2368 44.39C58.0301 44.63 57.7768 44.8167 57.4768 44.95C57.1835 45.0767 56.8568 45.14 56.4968 45.14ZM58.2568 42.41C58.2568 42.1033 58.2235 41.8167 58.1568 41.55C58.0901 41.2833 57.9868 41.0533 57.8468 40.86C57.7068 40.66 57.5268 40.5033 57.3068 40.39C57.0868 40.2767 56.8168 40.22 56.4968 40.22C56.1835 40.22 55.9135 40.2833 55.6868 40.41C55.4668 40.53 55.2868 40.6933 55.1468 40.9C55.0068 41.1 54.9035 41.3333 54.8368 41.6C54.7701 41.86 54.7368 42.13 54.7368 42.41C54.7368 42.73 54.7735 43.0267 54.8468 43.3C54.9268 43.5667 55.0401 43.7967 55.1868 43.99C55.3335 44.1833 55.5168 44.3333 55.7368 44.44C55.9568 44.5467 56.2101 44.6 56.4968 44.6C56.8101 44.6 57.0768 44.54 57.2968 44.42C57.5235 44.2933 57.7068 44.1267 57.8468 43.92C57.9868 43.7133 58.0901 43.48 58.1568 43.22C58.2235 42.96 58.2568 42.69 58.2568 42.41ZM60.5134 45H59.9134V39.82H60.5134V40.6H60.5334C60.6868 40.3 60.9068 40.0733 61.1934 39.92C61.4801 39.76 61.7934 39.68 62.1334 39.68C62.3734 39.68 62.5768 39.7067 62.7434 39.76C62.9101 39.8133 63.0501 39.8867 63.1634 39.98C63.2834 40.0667 63.3801 40.17 63.4534 40.29C63.5334 40.41 63.6001 40.54 63.6534 40.68C63.8268 40.34 64.0568 40.09 64.3434 39.93C64.6368 39.7633 64.9701 39.68 65.3434 39.68C65.6968 39.68 65.9768 39.74 66.1834 39.86C66.3968 39.9733 66.5601 40.1267 66.6734 40.32C66.7868 40.5067 66.8601 40.7233 66.8934 40.97C66.9334 41.2167 66.9534 41.47 66.9534 41.73V45H66.3534V41.42C66.3534 41.0467 66.2734 40.7533 66.1134 40.54C65.9601 40.3267 65.6701 40.22 65.2434 40.22C65.0234 40.22 64.8101 40.27 64.6034 40.37C64.4034 40.4633 64.2268 40.61 64.0734 40.81C64.0068 40.8967 63.9501 41 63.9034 41.12C63.8634 41.2333 63.8301 41.3533 63.8034 41.48C63.7768 41.6067 63.7568 41.7333 63.7434 41.86C63.7368 41.9867 63.7334 42.1033 63.7334 42.21V45H63.1334V41.42C63.1334 41.0467 63.0534 40.7533 62.8934 40.54C62.7401 40.3267 62.4501 40.22 62.0234 40.22C61.8034 40.22 61.5901 40.27 61.3834 40.37C61.1834 40.4633 61.0068 40.61 60.8534 40.81C60.7868 40.8967 60.7301 41 60.6834 41.12C60.6434 41.2333 60.6101 41.3533 60.5834 41.48C60.5568 41.6067 60.5368 41.7333 60.5234 41.86C60.5168 41.9867 60.5134 42.1033 60.5134 42.21V45ZM72.0735 42.05C72.0735 41.7967 72.0368 41.56 71.9635 41.34C71.8968 41.1133 71.7935 40.92 71.6535 40.76C71.5202 40.5933 71.3502 40.4633 71.1435 40.37C70.9368 40.27 70.7002 40.22 70.4335 40.22C70.1668 40.22 69.9302 40.27 69.7235 40.37C69.5235 40.47 69.3502 40.6033 69.2035 40.77C69.0635 40.9367 68.9502 41.13 68.8635 41.35C68.7768 41.57 68.7202 41.8033 68.6935 42.05H72.0735ZM68.6935 42.55C68.6935 42.83 68.7302 43.0967 68.8035 43.35C68.8768 43.5967 68.9835 43.8133 69.1235 44C69.2702 44.18 69.4535 44.3267 69.6735 44.44C69.8935 44.5467 70.1468 44.6 70.4335 44.6C70.8268 44.6 71.1635 44.4967 71.4435 44.29C71.7235 44.0833 71.9102 43.79 72.0035 43.41H72.6735C72.6002 43.6567 72.5035 43.8867 72.3835 44.1C72.2635 44.3067 72.1135 44.49 71.9335 44.65C71.7535 44.8033 71.5402 44.9233 71.2935 45.01C71.0468 45.0967 70.7602 45.14 70.4335 45.14C70.0202 45.14 69.6635 45.07 69.3635 44.93C69.0635 44.79 68.8168 44.6 68.6235 44.36C68.4302 44.1133 68.2868 43.8267 68.1935 43.5C68.1002 43.1667 68.0535 42.81 68.0535 42.43C68.0535 42.05 68.1068 41.6933 68.2135 41.36C68.3268 41.0267 68.4835 40.7367 68.6835 40.49C68.8902 40.2367 69.1402 40.04 69.4335 39.9C69.7268 39.7533 70.0602 39.68 70.4335 39.68C71.1468 39.68 71.7068 39.9267 72.1135 40.42C72.5202 40.9067 72.7202 41.6167 72.7135 42.55H68.6935Z" fill="black"/>
</svg>
